<svg xmlns="http://www.w3.org/2000/svg" xmlns:xlink="http://www.w3.org/1999/xlink" viewBox="0 0 867.65 1096.64"><defs><linearGradient id="a" x1="2365.01" y1="2250.27" x2="2136.33" y2="1608.39" gradientUnits="userSpaceOnUse"><stop offset="0" stop-color="#298de2"/><stop offset="1" stop-color="#29abe2"/></linearGradient><linearGradient id="b" x1="6.24" y1="827.66" x2="219.33" y2="609.37" xlink:href="#a"/><linearGradient id="c" x1="1965.92" y1="1420.72" x2="1963.32" y2="2254.89" xlink:href="#a"/></defs><path d="M2272,1818.84h80.55l-220.88-288.45,53.32,410.8,40.75,314.75c67.77-37.53,109.66-89.81,109.66-147.6a118.51,118.51,0,0,0-3-26.41Z" transform="translate(-1484.93 -1275.72)" style="fill:url(#a)"/><polygon points="309.24 254.67 88.36 543.12 168.91 543.12 0 1096.64 329.98 715.92 249.42 715.93 309.24 254.67" style="fill:url(#b)"/><path d="M2113.81,1496.61l-148.12-220.89-148.13,220.89s74.06,17.86,101.35,67.56l-18.71,340L1877.75,2310a649.61,649.61,0,0,0,175.88.1L2031.17,1904l-18.71-339.8C2039.75,1514.47,2113.81,1496.61,2113.81,1496.61Z" transform="translate(-1484.93 -1275.72)" style="fill:url(#c)"/></svg>